<svg xmlns="http://www.w3.org/2000/svg" width="675" height="136" fill="none"><path fill="#fff" d="M114.099 68.661q0 20.448-7.384 35.341-7.383 14.894-20.257 22.971t-29.408 8.078-29.409-8.078-20.257-22.971Q0 89.107 0 68.662 0 48.213 7.384 33.32 14.767 18.428 27.64 10.35T57.05 2.272t29.408 8.078 20.257 22.97q7.384 14.895 7.384 35.341m-15.146 0q0-16.786-5.617-28.335-5.554-11.55-15.082-17.481-9.467-5.932-21.205-5.932t-21.267 5.932q-9.465 5.933-15.083 17.48-5.553 11.55-5.553 28.336t5.553 28.336q5.617 11.549 15.083 17.481 9.53 5.931 21.268 5.932 11.737 0 21.204-5.932 9.528-5.933 15.082-17.481 5.617-11.55 5.617-28.336M125.067 133.284V36.35h14.389v14.641h1.009q2.588-7.194 9.53-11.675 6.942-4.48 15.713-4.48 4.04 0 7.069.946 3.029.947 5.301 2.588l-5.049 12.621q-1.578-.82-3.723-1.262-2.084-.505-4.86-.505-7.068 0-12.621 2.966-5.49 2.966-8.709 8.078-3.156 5.112-3.155 11.675v61.341zM213.595 135.303q-12.117 0-21.394-6.121-9.277-6.184-14.515-17.418-5.238-11.297-5.238-26.695 0-15.272 5.238-26.505t14.578-17.355q9.34-6.12 21.583-6.121 9.466 0 14.957 3.155 5.553 3.093 8.456 7.068 2.966 3.914 4.607 6.437h1.262V36.35h14.894v96.934h-14.389V118.39h-1.767q-1.641 2.65-4.67 6.69-3.029 3.975-8.646 7.131-5.617 3.092-14.956 3.092m2.019-13.379q8.961 0 15.146-4.67 6.184-4.733 9.403-13.063 3.219-8.394 3.219-19.374 0-10.854-3.156-18.996-3.155-8.204-9.34-12.747-6.185-4.608-15.272-4.607-9.466 0-15.777 4.86-6.247 4.796-9.403 13.062-3.092 8.204-3.092 18.428 0 10.35 3.155 18.806 3.219 8.394 9.466 13.379 6.311 4.922 15.651 4.922M274.039 4.039h14.894V108.04q0 7.068 1.577 9.907 1.578 2.84 6.501 2.714 2.65-.126 3.912-.379 1.326-.315 2.398-.631l3.03 12.874q-1.958.569-4.923 1.01a37 37 0 0 1-6.184.505q-10.603 0-15.904-5.806t-5.301-16.156zM347.342 135.303q-14.01 0-24.17-6.184-10.097-6.248-15.588-17.418-5.427-11.234-5.427-26.127 0-14.894 5.427-26.253 5.491-11.423 15.272-17.796 9.846-6.437 22.972-6.437 7.572 0 14.956 2.524t13.442 8.204q6.059 5.618 9.656 14.894t3.597 22.845v6.31h-74.72V76.992h59.574q0-8.204-3.282-14.642-3.218-6.436-9.213-10.16-5.932-3.723-14.01-3.723-8.898 0-15.399 4.417-6.437 4.355-9.908 11.36t-3.471 15.02v8.582q0 10.98 3.787 18.617 3.849 7.572 10.665 11.549 6.816 3.912 15.84 3.912 5.87 0 10.602-1.641 4.796-1.703 8.267-5.048 3.47-3.408 5.365-8.457l14.388 4.039q-2.272 7.321-7.636 12.874-5.364 5.49-13.252 8.583-7.889 3.029-17.734 3.029M465.467 58.06l-13.378 3.786q-1.263-3.345-3.724-6.5-2.398-3.219-6.563-5.301t-10.665-2.083q-8.898 0-14.831 4.102-5.868 4.039-5.869 10.286 0 5.554 4.039 8.773 4.04 3.218 12.622 5.364l14.388 3.534q13 3.155 19.375 9.655 6.373 6.437 6.373 16.598 0 8.33-4.796 14.893-4.733 6.563-13.252 10.35t-19.816 3.786q-14.83 0-24.549-6.437t-12.306-18.806l14.136-3.534q2.02 7.826 7.636 11.738 5.68 3.912 14.83 3.913 10.413 0 16.535-4.418 6.184-4.48 6.184-10.728 0-5.049-3.534-8.457-3.534-3.47-10.854-5.174l-16.156-3.787q-13.316-3.155-19.563-9.782-6.185-6.69-6.185-16.723 0-8.205 4.607-14.515 4.67-6.31 12.685-9.908 8.077-3.597 18.301-3.597 14.388 0 22.592 6.31 8.267 6.312 11.738 16.661M476.325 133.284V36.35h14.894v96.934zm7.573-113.09q-4.354 0-7.51-2.966-3.092-2.966-3.092-7.13 0-4.166 3.092-7.132Q479.544 0 483.898 0t7.447 2.966q3.155 2.966 3.155 7.131 0 4.166-3.155 7.131-3.093 2.967-7.447 2.967M544.548 135.303q-13.126 0-23.035-6.248-9.845-6.248-15.398-17.48-5.49-11.234-5.49-26.253 0-15.146 5.49-26.442 5.553-11.297 15.398-17.544 9.909-6.248 23.035-6.248t22.971 6.248q9.908 6.248 15.398 17.544 5.554 11.296 5.554 26.442 0 15.02-5.554 26.253-5.49 11.232-15.398 17.48-9.845 6.248-22.971 6.248m0-13.379q9.97 0 16.408-5.111 6.437-5.112 9.529-13.442t3.092-18.05q0-9.718-3.092-18.111t-9.529-13.568-16.408-5.175-16.408 5.175-9.53 13.568-3.092 18.112q0 9.718 3.092 18.049t9.53 13.442q6.436 5.11 16.408 5.111M612.77 74.972v58.312h-14.893V36.35h14.389v15.146h1.262q3.408-7.383 10.349-11.864 6.942-4.544 17.923-4.544 9.845 0 17.228 4.039 7.384 3.976 11.486 12.116 4.102 8.078 4.102 20.447v61.594h-14.893V72.7q0-11.422-5.932-17.796-5.932-6.437-16.282-6.437-7.132 0-12.748 3.092-5.553 3.093-8.772 9.025-3.219 5.931-3.219 14.388"/></svg>