<svg xmlns="http://www.w3.org/2000/svg" width="188" height="209" fill="none"><path fill="#fff" d="M147.722 1.664c-20.164-5.262-41.204 3.727-54.136 16.662C80.657 5.171 59.616-3.598 39.452 1.444 24.767 5.171 0 19.642 0 73.576c0 87.479 48.218 134.617 93.587 134.617 45.368.001 93.586-46.919 93.586-134.398 0-53.934-24.767-68.404-39.451-72.132zM93.586 188.68c-28.492 0-73.641-31.132-73.641-114.665 0-30.036 8.766-48.892 24.547-53.057 2.41-.658 4.603-.877 7.014-.877 12.93 0 26.082 8.112 32.218 17.54v62.705a9.82 9.82 0 0 0 9.862 9.865 9.82 9.82 0 0 0 9.863-9.865V37.621c7.451-11.18 24.547-20.609 39.232-16.662 15.78 4.166 24.547 23.021 24.547 53.058.001 83.532-45.15 114.665-73.642 114.665z"/><path fill="#fff" d="M132.171 43.977h8.243v8.34h-8.243zM142.062 59.825h8.243v8.34h-8.243zM122.279 59.825h8.243v8.34h-8.243zM132.171 75.673h8.243v8.34h-8.243zM46.897 43.977h8.243v8.34h-8.243zM56.789 59.825h8.242v8.34H56.79zM37.006 59.825h8.243v8.34h-8.243zM46.897 75.673h8.243v8.34h-8.243z"/></svg>